<mxfile host="app.diagrams.net" agent="Mozilla/5.0 (Windows NT 10.0; Win64; x64) AppleWebKit/537.36 (KHTML, like Gecko) Chrome/129.0.0.0 Safari/537.36" version="24.7.17">
  <diagram id="C5RBs43oDa-KdzZeNtuy" name="Page-1">
    <mxGraphModel dx="2227" dy="1865" grid="1" gridSize="10" guides="1" tooltips="1" connect="1" arrows="1" fold="1" page="1" pageScale="1" pageWidth="827" pageHeight="1169" math="0" shadow="0">
      <root>
        <mxCell id="WIyWlLk6GJQsqaUBKTNV-0" />
        <mxCell id="WIyWlLk6GJQsqaUBKTNV-1" parent="WIyWlLk6GJQsqaUBKTNV-0" />
        <mxCell id="zkfFHV4jXpPFQw0GAbJ--0" value="Game" style="swimlane;fontStyle=2;align=center;verticalAlign=top;childLayout=stackLayout;horizontal=1;startSize=26;horizontalStack=0;resizeParent=1;resizeLast=0;collapsible=1;marginBottom=0;rounded=0;shadow=0;strokeWidth=1;" parent="WIyWlLk6GJQsqaUBKTNV-1" vertex="1">
          <mxGeometry x="100" y="22" width="226" height="190" as="geometry">
            <mxRectangle x="230" y="140" width="160" height="26" as="alternateBounds" />
          </mxGeometry>
        </mxCell>
        <mxCell id="zkfFHV4jXpPFQw0GAbJ--1" value="-board Board" style="text;align=left;verticalAlign=top;spacingLeft=4;spacingRight=4;overflow=hidden;rotatable=0;points=[[0,0.5],[1,0.5]];portConstraint=eastwest;" parent="zkfFHV4jXpPFQw0GAbJ--0" vertex="1">
          <mxGeometry y="26" width="226" height="26" as="geometry" />
        </mxCell>
        <mxCell id="zkfFHV4jXpPFQw0GAbJ--2" value="-players: List&lt;Player&gt;" style="text;align=left;verticalAlign=top;spacingLeft=4;spacingRight=4;overflow=hidden;rotatable=0;points=[[0,0.5],[1,0.5]];portConstraint=eastwest;rounded=0;shadow=0;html=0;" parent="zkfFHV4jXpPFQw0GAbJ--0" vertex="1">
          <mxGeometry y="52" width="226" height="26" as="geometry" />
        </mxCell>
        <mxCell id="zkfFHV4jXpPFQw0GAbJ--3" value="-rounds: int" style="text;align=left;verticalAlign=top;spacingLeft=4;spacingRight=4;overflow=hidden;rotatable=0;points=[[0,0.5],[1,0.5]];portConstraint=eastwest;rounded=0;shadow=0;html=0;" parent="zkfFHV4jXpPFQw0GAbJ--0" vertex="1">
          <mxGeometry y="78" width="226" height="26" as="geometry" />
        </mxCell>
        <mxCell id="zkfFHV4jXpPFQw0GAbJ--4" value="" style="line;html=1;strokeWidth=1;align=left;verticalAlign=middle;spacingTop=-1;spacingLeft=3;spacingRight=3;rotatable=0;labelPosition=right;points=[];portConstraint=eastwest;" parent="zkfFHV4jXpPFQw0GAbJ--0" vertex="1">
          <mxGeometry y="104" width="226" height="8" as="geometry" />
        </mxCell>
        <mxCell id="zkfFHV4jXpPFQw0GAbJ--5" value="+Game (configFile: String)" style="text;align=left;verticalAlign=top;spacingLeft=4;spacingRight=4;overflow=hidden;rotatable=0;points=[[0,0.5],[1,0.5]];portConstraint=eastwest;" parent="zkfFHV4jXpPFQw0GAbJ--0" vertex="1">
          <mxGeometry y="112" width="226" height="26" as="geometry" />
        </mxCell>
        <mxCell id="3stbD-vfwwwqs8hx2HHw-0" value="+startGame(rollDice: List&lt;int&gt;)" style="text;align=left;verticalAlign=top;spacingLeft=4;spacingRight=4;overflow=hidden;rotatable=0;points=[[0,0.5],[1,0.5]];portConstraint=eastwest;" parent="zkfFHV4jXpPFQw0GAbJ--0" vertex="1">
          <mxGeometry y="138" width="226" height="26" as="geometry" />
        </mxCell>
        <mxCell id="3stbD-vfwwwqs8hx2HHw-1" value="+printResults(): void " style="text;align=left;verticalAlign=top;spacingLeft=4;spacingRight=4;overflow=hidden;rotatable=0;points=[[0,0.5],[1,0.5]];portConstraint=eastwest;" parent="zkfFHV4jXpPFQw0GAbJ--0" vertex="1">
          <mxGeometry y="164" width="226" height="26" as="geometry" />
        </mxCell>
        <mxCell id="3stbD-vfwwwqs8hx2HHw-2" value="Player" style="swimlane;fontStyle=2;align=center;verticalAlign=top;childLayout=stackLayout;horizontal=1;startSize=26;horizontalStack=0;resizeParent=1;resizeLast=0;collapsible=1;marginBottom=0;rounded=0;shadow=0;strokeWidth=1;" parent="WIyWlLk6GJQsqaUBKTNV-1" vertex="1">
          <mxGeometry x="370" y="-80" width="226" height="372" as="geometry">
            <mxRectangle x="230" y="140" width="160" height="26" as="alternateBounds" />
          </mxGeometry>
        </mxCell>
        <mxCell id="3stbD-vfwwwqs8hx2HHw-3" value="-name: String " style="text;align=left;verticalAlign=top;spacingLeft=4;spacingRight=4;overflow=hidden;rotatable=0;points=[[0,0.5],[1,0.5]];portConstraint=eastwest;" parent="3stbD-vfwwwqs8hx2HHw-2" vertex="1">
          <mxGeometry y="26" width="226" height="26" as="geometry" />
        </mxCell>
        <mxCell id="3stbD-vfwwwqs8hx2HHw-4" value="-money: int " style="text;align=left;verticalAlign=top;spacingLeft=4;spacingRight=4;overflow=hidden;rotatable=0;points=[[0,0.5],[1,0.5]];portConstraint=eastwest;rounded=0;shadow=0;html=0;" parent="3stbD-vfwwwqs8hx2HHw-2" vertex="1">
          <mxGeometry y="52" width="226" height="26" as="geometry" />
        </mxCell>
        <mxCell id="3stbD-vfwwwqs8hx2HHw-5" value="-position: int " style="text;align=left;verticalAlign=top;spacingLeft=4;spacingRight=4;overflow=hidden;rotatable=0;points=[[0,0.5],[1,0.5]];portConstraint=eastwest;rounded=0;shadow=0;html=0;" parent="3stbD-vfwwwqs8hx2HHw-2" vertex="1">
          <mxGeometry y="78" width="226" height="26" as="geometry" />
        </mxCell>
        <mxCell id="3stbD-vfwwwqs8hx2HHw-18" value=" -ownedProperties: List&lt;Property&gt;" style="text;align=left;verticalAlign=top;spacingLeft=4;spacingRight=4;overflow=hidden;rotatable=0;points=[[0,0.5],[1,0.5]];portConstraint=eastwest;rounded=0;shadow=0;html=0;" parent="3stbD-vfwwwqs8hx2HHw-2" vertex="1">
          <mxGeometry y="104" width="226" height="26" as="geometry" />
        </mxCell>
        <mxCell id="3stbD-vfwwwqs8hx2HHw-19" value="-bankrupt: boolean " style="text;align=left;verticalAlign=top;spacingLeft=4;spacingRight=4;overflow=hidden;rotatable=0;points=[[0,0.5],[1,0.5]];portConstraint=eastwest;rounded=0;shadow=0;html=0;" parent="3stbD-vfwwwqs8hx2HHw-2" vertex="1">
          <mxGeometry y="130" width="226" height="26" as="geometry" />
        </mxCell>
        <mxCell id="3stbD-vfwwwqs8hx2HHw-6" value="" style="line;html=1;strokeWidth=1;align=left;verticalAlign=middle;spacingTop=-1;spacingLeft=3;spacingRight=3;rotatable=0;labelPosition=right;points=[];portConstraint=eastwest;" parent="3stbD-vfwwwqs8hx2HHw-2" vertex="1">
          <mxGeometry y="156" width="226" height="8" as="geometry" />
        </mxCell>
        <mxCell id="3stbD-vfwwwqs8hx2HHw-7" value=" +move(roll: int, board: Board) " style="text;align=left;verticalAlign=top;spacingLeft=4;spacingRight=4;overflow=hidden;rotatable=0;points=[[0,0.5],[1,0.5]];portConstraint=eastwest;" parent="3stbD-vfwwwqs8hx2HHw-2" vertex="1">
          <mxGeometry y="164" width="226" height="26" as="geometry" />
        </mxCell>
        <mxCell id="3stbD-vfwwwqs8hx2HHw-8" value="+payRent(owner: Player, amount: int) " style="text;align=left;verticalAlign=top;spacingLeft=4;spacingRight=4;overflow=hidden;rotatable=0;points=[[0,0.5],[1,0.5]];portConstraint=eastwest;" parent="3stbD-vfwwwqs8hx2HHw-2" vertex="1">
          <mxGeometry y="190" width="226" height="26" as="geometry" />
        </mxCell>
        <mxCell id="3stbD-vfwwwqs8hx2HHw-9" value=" +payToBank(amount: int): void  " style="text;align=left;verticalAlign=top;spacingLeft=4;spacingRight=4;overflow=hidden;rotatable=0;points=[[0,0.5],[1,0.5]];portConstraint=eastwest;" parent="3stbD-vfwwwqs8hx2HHw-2" vertex="1">
          <mxGeometry y="216" width="226" height="26" as="geometry" />
        </mxCell>
        <mxCell id="3stbD-vfwwwqs8hx2HHw-22" value="+receiveMoney(amount: int): void " style="text;align=left;verticalAlign=top;spacingLeft=4;spacingRight=4;overflow=hidden;rotatable=0;points=[[0,0.5],[1,0.5]];portConstraint=eastwest;" parent="3stbD-vfwwwqs8hx2HHw-2" vertex="1">
          <mxGeometry y="242" width="226" height="26" as="geometry" />
        </mxCell>
        <mxCell id="3stbD-vfwwwqs8hx2HHw-23" value="+considerBuying(property: Property) " style="text;align=left;verticalAlign=top;spacingLeft=4;spacingRight=4;overflow=hidden;rotatable=0;points=[[0,0.5],[1,0.5]];portConstraint=eastwest;" parent="3stbD-vfwwwqs8hx2HHw-2" vertex="1">
          <mxGeometry y="268" width="226" height="26" as="geometry" />
        </mxCell>
        <mxCell id="3stbD-vfwwwqs8hx2HHw-24" value="+bankrupt(): void  " style="text;align=left;verticalAlign=top;spacingLeft=4;spacingRight=4;overflow=hidden;rotatable=0;points=[[0,0.5],[1,0.5]];portConstraint=eastwest;" parent="3stbD-vfwwwqs8hx2HHw-2" vertex="1">
          <mxGeometry y="294" width="226" height="26" as="geometry" />
        </mxCell>
        <mxCell id="3stbD-vfwwwqs8hx2HHw-25" value="+isBankrupt(): boolean  " style="text;align=left;verticalAlign=top;spacingLeft=4;spacingRight=4;overflow=hidden;rotatable=0;points=[[0,0.5],[1,0.5]];portConstraint=eastwest;" parent="3stbD-vfwwwqs8hx2HHw-2" vertex="1">
          <mxGeometry y="320" width="226" height="26" as="geometry" />
        </mxCell>
        <mxCell id="3stbD-vfwwwqs8hx2HHw-26" value="+getName(): String  " style="text;align=left;verticalAlign=top;spacingLeft=4;spacingRight=4;overflow=hidden;rotatable=0;points=[[0,0.5],[1,0.5]];portConstraint=eastwest;" parent="3stbD-vfwwwqs8hx2HHw-2" vertex="1">
          <mxGeometry y="346" width="226" height="26" as="geometry" />
        </mxCell>
        <mxCell id="3stbD-vfwwwqs8hx2HHw-10" value="Dice" style="swimlane;fontStyle=2;align=center;verticalAlign=top;childLayout=stackLayout;horizontal=1;startSize=26;horizontalStack=0;resizeParent=1;resizeLast=0;collapsible=1;marginBottom=0;rounded=0;shadow=0;strokeWidth=1;" parent="WIyWlLk6GJQsqaUBKTNV-1" vertex="1">
          <mxGeometry x="153" y="-120" width="120" height="90" as="geometry">
            <mxRectangle x="230" y="140" width="160" height="26" as="alternateBounds" />
          </mxGeometry>
        </mxCell>
        <mxCell id="3stbD-vfwwwqs8hx2HHw-11" value="-randomDice: Dice" style="text;align=left;verticalAlign=top;spacingLeft=4;spacingRight=4;overflow=hidden;rotatable=0;points=[[0,0.5],[1,0.5]];portConstraint=eastwest;" parent="3stbD-vfwwwqs8hx2HHw-10" vertex="1">
          <mxGeometry y="26" width="120" height="26" as="geometry" />
        </mxCell>
        <mxCell id="3stbD-vfwwwqs8hx2HHw-14" value="" style="line;html=1;strokeWidth=1;align=left;verticalAlign=middle;spacingTop=-1;spacingLeft=3;spacingRight=3;rotatable=0;labelPosition=right;points=[];portConstraint=eastwest;" parent="3stbD-vfwwwqs8hx2HHw-10" vertex="1">
          <mxGeometry y="52" width="120" height="8" as="geometry" />
        </mxCell>
        <mxCell id="3stbD-vfwwwqs8hx2HHw-15" value="+roll(): List&lt;int&gt;" style="text;align=left;verticalAlign=top;spacingLeft=4;spacingRight=4;overflow=hidden;rotatable=0;points=[[0,0.5],[1,0.5]];portConstraint=eastwest;" parent="3stbD-vfwwwqs8hx2HHw-10" vertex="1">
          <mxGeometry y="60" width="120" height="26" as="geometry" />
        </mxCell>
        <mxCell id="3stbD-vfwwwqs8hx2HHw-33" value="Board" style="swimlane;fontStyle=2;align=center;verticalAlign=top;childLayout=stackLayout;horizontal=1;startSize=26;horizontalStack=0;resizeParent=1;resizeLast=0;collapsible=1;marginBottom=0;rounded=0;shadow=0;strokeWidth=1;" parent="WIyWlLk6GJQsqaUBKTNV-1" vertex="1">
          <mxGeometry x="100" y="250" width="226" height="140" as="geometry">
            <mxRectangle x="230" y="140" width="160" height="26" as="alternateBounds" />
          </mxGeometry>
        </mxCell>
        <mxCell id="adYYrquD5wkxll2_nq_Y-32" value="-fields: List&lt;Field&gt;" style="text;align=left;verticalAlign=top;spacingLeft=4;spacingRight=4;overflow=hidden;rotatable=0;points=[[0,0.5],[1,0.5]];portConstraint=eastwest;" vertex="1" parent="3stbD-vfwwwqs8hx2HHw-33">
          <mxGeometry y="26" width="226" height="26" as="geometry" />
        </mxCell>
        <mxCell id="3stbD-vfwwwqs8hx2HHw-37" value="" style="line;html=1;strokeWidth=1;align=left;verticalAlign=middle;spacingTop=-1;spacingLeft=3;spacingRight=3;rotatable=0;labelPosition=right;points=[];portConstraint=eastwest;" parent="3stbD-vfwwwqs8hx2HHw-33" vertex="1">
          <mxGeometry y="52" width="226" height="8" as="geometry" />
        </mxCell>
        <mxCell id="adYYrquD5wkxll2_nq_Y-29" value=" +addField(field: Field): void" style="text;align=left;verticalAlign=top;spacingLeft=4;spacingRight=4;overflow=hidden;rotatable=0;points=[[0,0.5],[1,0.5]];portConstraint=eastwest;" vertex="1" parent="3stbD-vfwwwqs8hx2HHw-33">
          <mxGeometry y="60" width="226" height="26" as="geometry" />
        </mxCell>
        <mxCell id="adYYrquD5wkxll2_nq_Y-30" value="+getField(index: int): Field " style="text;align=left;verticalAlign=top;spacingLeft=4;spacingRight=4;overflow=hidden;rotatable=0;points=[[0,0.5],[1,0.5]];portConstraint=eastwest;" vertex="1" parent="3stbD-vfwwwqs8hx2HHw-33">
          <mxGeometry y="86" width="226" height="26" as="geometry" />
        </mxCell>
        <mxCell id="adYYrquD5wkxll2_nq_Y-31" value=" +releaseProperties(owner: Player) " style="text;align=left;verticalAlign=top;spacingLeft=4;spacingRight=4;overflow=hidden;rotatable=0;points=[[0,0.5],[1,0.5]];portConstraint=eastwest;" vertex="1" parent="3stbD-vfwwwqs8hx2HHw-33">
          <mxGeometry y="112" width="226" height="26" as="geometry" />
        </mxCell>
        <mxCell id="3stbD-vfwwwqs8hx2HHw-41" value="" style="endArrow=none;endFill=0;endSize=12;html=1;rounded=0;entryX=0.5;entryY=0;entryDx=0;entryDy=0;" parent="WIyWlLk6GJQsqaUBKTNV-1" source="3stbD-vfwwwqs8hx2HHw-1" target="3stbD-vfwwwqs8hx2HHw-33" edge="1">
          <mxGeometry width="160" relative="1" as="geometry">
            <mxPoint x="410" y="190" as="sourcePoint" />
            <mxPoint x="570" y="190" as="targetPoint" />
          </mxGeometry>
        </mxCell>
        <mxCell id="adYYrquD5wkxll2_nq_Y-2" value="1" style="edgeLabel;html=1;align=center;verticalAlign=middle;resizable=0;points=[];" vertex="1" connectable="0" parent="3stbD-vfwwwqs8hx2HHw-41">
          <mxGeometry x="-0.8461" y="-1" relative="1" as="geometry">
            <mxPoint x="8" y="4" as="offset" />
          </mxGeometry>
        </mxCell>
        <mxCell id="adYYrquD5wkxll2_nq_Y-3" value="1" style="edgeLabel;html=1;align=center;verticalAlign=middle;resizable=0;points=[];" vertex="1" connectable="0" parent="3stbD-vfwwwqs8hx2HHw-41">
          <mxGeometry x="0.6796" y="1" relative="1" as="geometry">
            <mxPoint x="6" as="offset" />
          </mxGeometry>
        </mxCell>
        <mxCell id="yE5SrkLv0Mxitz5vEZZZ-0" value="Field" style="swimlane;fontStyle=2;align=center;verticalAlign=top;childLayout=stackLayout;horizontal=1;startSize=26;horizontalStack=0;resizeParent=1;resizeLast=0;collapsible=1;marginBottom=0;rounded=0;shadow=0;strokeWidth=1;" parent="WIyWlLk6GJQsqaUBKTNV-1" vertex="1">
          <mxGeometry x="100" y="430" width="226" height="70" as="geometry">
            <mxRectangle x="230" y="140" width="160" height="26" as="alternateBounds" />
          </mxGeometry>
        </mxCell>
        <mxCell id="adYYrquD5wkxll2_nq_Y-33" value="+landOn(player: Player): void " style="text;align=left;verticalAlign=top;spacingLeft=4;spacingRight=4;overflow=hidden;rotatable=0;points=[[0,0.5],[1,0.5]];portConstraint=eastwest;" vertex="1" parent="yE5SrkLv0Mxitz5vEZZZ-0">
          <mxGeometry y="26" width="226" height="26" as="geometry" />
        </mxCell>
        <mxCell id="yE5SrkLv0Mxitz5vEZZZ-2" value="" style="line;html=1;strokeWidth=1;align=left;verticalAlign=middle;spacingTop=-1;spacingLeft=3;spacingRight=3;rotatable=0;labelPosition=right;points=[];portConstraint=eastwest;" parent="yE5SrkLv0Mxitz5vEZZZ-0" vertex="1">
          <mxGeometry y="52" width="226" height="8" as="geometry" />
        </mxCell>
        <mxCell id="yE5SrkLv0Mxitz5vEZZZ-7" value="PropertyField" style="swimlane;fontStyle=2;align=center;verticalAlign=top;childLayout=stackLayout;horizontal=1;startSize=26;horizontalStack=0;resizeParent=1;resizeLast=0;collapsible=1;marginBottom=0;rounded=0;shadow=0;strokeWidth=1;" parent="WIyWlLk6GJQsqaUBKTNV-1" vertex="1">
          <mxGeometry x="-190" y="340" width="226" height="190" as="geometry">
            <mxRectangle x="230" y="140" width="160" height="26" as="alternateBounds" />
          </mxGeometry>
        </mxCell>
        <mxCell id="yE5SrkLv0Mxitz5vEZZZ-8" value="-owner: Player" style="text;align=left;verticalAlign=top;spacingLeft=4;spacingRight=4;overflow=hidden;rotatable=0;points=[[0,0.5],[1,0.5]];portConstraint=eastwest;" parent="yE5SrkLv0Mxitz5vEZZZ-7" vertex="1">
          <mxGeometry y="26" width="226" height="26" as="geometry" />
        </mxCell>
        <mxCell id="yE5SrkLv0Mxitz5vEZZZ-13" value="-hasHouse: bool" style="text;align=left;verticalAlign=top;spacingLeft=4;spacingRight=4;overflow=hidden;rotatable=0;points=[[0,0.5],[1,0.5]];portConstraint=eastwest;" parent="yE5SrkLv0Mxitz5vEZZZ-7" vertex="1">
          <mxGeometry y="52" width="226" height="26" as="geometry" />
        </mxCell>
        <mxCell id="yE5SrkLv0Mxitz5vEZZZ-9" value="" style="line;html=1;strokeWidth=1;align=left;verticalAlign=middle;spacingTop=-1;spacingLeft=3;spacingRight=3;rotatable=0;labelPosition=right;points=[];portConstraint=eastwest;" parent="yE5SrkLv0Mxitz5vEZZZ-7" vertex="1">
          <mxGeometry y="78" width="226" height="8" as="geometry" />
        </mxCell>
        <mxCell id="yE5SrkLv0Mxitz5vEZZZ-10" value=" +buy(player: Player): void  " style="text;align=left;verticalAlign=top;spacingLeft=4;spacingRight=4;overflow=hidden;rotatable=0;points=[[0,0.5],[1,0.5]];portConstraint=eastwest;" parent="yE5SrkLv0Mxitz5vEZZZ-7" vertex="1">
          <mxGeometry y="86" width="226" height="26" as="geometry" />
        </mxCell>
        <mxCell id="yE5SrkLv0Mxitz5vEZZZ-11" value="+buildHouse(): void   " style="text;align=left;verticalAlign=top;spacingLeft=4;spacingRight=4;overflow=hidden;rotatable=0;points=[[0,0.5],[1,0.5]];portConstraint=eastwest;" parent="yE5SrkLv0Mxitz5vEZZZ-7" vertex="1">
          <mxGeometry y="112" width="226" height="26" as="geometry" />
        </mxCell>
        <mxCell id="yE5SrkLv0Mxitz5vEZZZ-12" value=" +release(): void " style="text;align=left;verticalAlign=top;spacingLeft=4;spacingRight=4;overflow=hidden;rotatable=0;points=[[0,0.5],[1,0.5]];portConstraint=eastwest;" parent="yE5SrkLv0Mxitz5vEZZZ-7" vertex="1">
          <mxGeometry y="138" width="226" height="26" as="geometry" />
        </mxCell>
        <mxCell id="yE5SrkLv0Mxitz5vEZZZ-14" value=" +canBuyHouse(player: Player)  " style="text;align=left;verticalAlign=top;spacingLeft=4;spacingRight=4;overflow=hidden;rotatable=0;points=[[0,0.5],[1,0.5]];portConstraint=eastwest;" parent="yE5SrkLv0Mxitz5vEZZZ-7" vertex="1">
          <mxGeometry y="164" width="226" height="26" as="geometry" />
        </mxCell>
        <mxCell id="yE5SrkLv0Mxitz5vEZZZ-15" value="ServiceField" style="swimlane;fontStyle=2;align=center;verticalAlign=top;childLayout=stackLayout;horizontal=1;startSize=26;horizontalStack=0;resizeParent=1;resizeLast=0;collapsible=1;marginBottom=0;rounded=0;shadow=0;strokeWidth=1;" parent="WIyWlLk6GJQsqaUBKTNV-1" vertex="1">
          <mxGeometry x="-180" y="585" width="226" height="65" as="geometry">
            <mxRectangle x="230" y="140" width="160" height="26" as="alternateBounds" />
          </mxGeometry>
        </mxCell>
        <mxCell id="yE5SrkLv0Mxitz5vEZZZ-16" value="-cost: int" style="text;align=left;verticalAlign=top;spacingLeft=4;spacingRight=4;overflow=hidden;rotatable=0;points=[[0,0.5],[1,0.5]];portConstraint=eastwest;" parent="yE5SrkLv0Mxitz5vEZZZ-15" vertex="1">
          <mxGeometry y="26" width="226" height="26" as="geometry" />
        </mxCell>
        <mxCell id="yE5SrkLv0Mxitz5vEZZZ-18" value="" style="line;html=1;strokeWidth=1;align=left;verticalAlign=middle;spacingTop=-1;spacingLeft=3;spacingRight=3;rotatable=0;labelPosition=right;points=[];portConstraint=eastwest;" parent="yE5SrkLv0Mxitz5vEZZZ-15" vertex="1">
          <mxGeometry y="52" width="226" height="8" as="geometry" />
        </mxCell>
        <mxCell id="yE5SrkLv0Mxitz5vEZZZ-23" value="LuckyField" style="swimlane;fontStyle=2;align=center;verticalAlign=top;childLayout=stackLayout;horizontal=1;startSize=26;horizontalStack=0;resizeParent=1;resizeLast=0;collapsible=1;marginBottom=0;rounded=0;shadow=0;strokeWidth=1;" parent="WIyWlLk6GJQsqaUBKTNV-1" vertex="1">
          <mxGeometry x="100" y="560" width="226" height="65" as="geometry">
            <mxRectangle x="230" y="140" width="160" height="26" as="alternateBounds" />
          </mxGeometry>
        </mxCell>
        <mxCell id="yE5SrkLv0Mxitz5vEZZZ-24" value="-reward: int" style="text;align=left;verticalAlign=top;spacingLeft=4;spacingRight=4;overflow=hidden;rotatable=0;points=[[0,0.5],[1,0.5]];portConstraint=eastwest;" parent="yE5SrkLv0Mxitz5vEZZZ-23" vertex="1">
          <mxGeometry y="26" width="226" height="26" as="geometry" />
        </mxCell>
        <mxCell id="yE5SrkLv0Mxitz5vEZZZ-25" value="" style="line;html=1;strokeWidth=1;align=left;verticalAlign=middle;spacingTop=-1;spacingLeft=3;spacingRight=3;rotatable=0;labelPosition=right;points=[];portConstraint=eastwest;" parent="yE5SrkLv0Mxitz5vEZZZ-23" vertex="1">
          <mxGeometry y="52" width="226" height="8" as="geometry" />
        </mxCell>
        <mxCell id="yE5SrkLv0Mxitz5vEZZZ-33" value="CarefulPlayer" style="swimlane;fontStyle=2;align=center;verticalAlign=top;childLayout=stackLayout;horizontal=1;startSize=26;horizontalStack=0;resizeParent=1;resizeLast=0;collapsible=1;marginBottom=0;rounded=0;shadow=0;strokeWidth=1;" parent="WIyWlLk6GJQsqaUBKTNV-1" vertex="1">
          <mxGeometry x="326" y="-250" width="226" height="70" as="geometry">
            <mxRectangle x="230" y="140" width="160" height="26" as="alternateBounds" />
          </mxGeometry>
        </mxCell>
        <mxCell id="yE5SrkLv0Mxitz5vEZZZ-35" value="" style="line;html=1;strokeWidth=1;align=left;verticalAlign=middle;spacingTop=-1;spacingLeft=3;spacingRight=3;rotatable=0;labelPosition=right;points=[];portConstraint=eastwest;" parent="yE5SrkLv0Mxitz5vEZZZ-33" vertex="1">
          <mxGeometry y="26" width="226" height="8" as="geometry" />
        </mxCell>
        <mxCell id="yE5SrkLv0Mxitz5vEZZZ-36" value=" +considerBuying(): boolean" style="text;align=left;verticalAlign=top;spacingLeft=4;spacingRight=4;overflow=hidden;rotatable=0;points=[[0,0.5],[1,0.5]];portConstraint=eastwest;" parent="yE5SrkLv0Mxitz5vEZZZ-33" vertex="1">
          <mxGeometry y="34" width="226" height="26" as="geometry" />
        </mxCell>
        <mxCell id="yE5SrkLv0Mxitz5vEZZZ-39" value=" GreedyPlayer" style="swimlane;fontStyle=2;align=center;verticalAlign=top;childLayout=stackLayout;horizontal=1;startSize=26;horizontalStack=0;resizeParent=1;resizeLast=0;collapsible=1;marginBottom=0;rounded=0;shadow=0;strokeWidth=1;" parent="WIyWlLk6GJQsqaUBKTNV-1" vertex="1">
          <mxGeometry x="50" y="-250" width="226" height="70" as="geometry">
            <mxRectangle x="230" y="140" width="160" height="26" as="alternateBounds" />
          </mxGeometry>
        </mxCell>
        <mxCell id="yE5SrkLv0Mxitz5vEZZZ-40" value="" style="line;html=1;strokeWidth=1;align=left;verticalAlign=middle;spacingTop=-1;spacingLeft=3;spacingRight=3;rotatable=0;labelPosition=right;points=[];portConstraint=eastwest;" parent="yE5SrkLv0Mxitz5vEZZZ-39" vertex="1">
          <mxGeometry y="26" width="226" height="8" as="geometry" />
        </mxCell>
        <mxCell id="yE5SrkLv0Mxitz5vEZZZ-41" value=" +considerBuying(): boolean" style="text;align=left;verticalAlign=top;spacingLeft=4;spacingRight=4;overflow=hidden;rotatable=0;points=[[0,0.5],[1,0.5]];portConstraint=eastwest;" parent="yE5SrkLv0Mxitz5vEZZZ-39" vertex="1">
          <mxGeometry y="34" width="226" height="26" as="geometry" />
        </mxCell>
        <mxCell id="yE5SrkLv0Mxitz5vEZZZ-42" value="TacticalPlayer" style="swimlane;fontStyle=2;align=center;verticalAlign=top;childLayout=stackLayout;horizontal=1;startSize=26;horizontalStack=0;resizeParent=1;resizeLast=0;collapsible=1;marginBottom=0;rounded=0;shadow=0;strokeWidth=1;" parent="WIyWlLk6GJQsqaUBKTNV-1" vertex="1">
          <mxGeometry x="540" y="-170" width="226" height="70" as="geometry">
            <mxRectangle x="230" y="140" width="160" height="26" as="alternateBounds" />
          </mxGeometry>
        </mxCell>
        <mxCell id="yE5SrkLv0Mxitz5vEZZZ-43" value="" style="line;html=1;strokeWidth=1;align=left;verticalAlign=middle;spacingTop=-1;spacingLeft=3;spacingRight=3;rotatable=0;labelPosition=right;points=[];portConstraint=eastwest;" parent="yE5SrkLv0Mxitz5vEZZZ-42" vertex="1">
          <mxGeometry y="26" width="226" height="8" as="geometry" />
        </mxCell>
        <mxCell id="yE5SrkLv0Mxitz5vEZZZ-44" value=" +considerBuying(): boolean" style="text;align=left;verticalAlign=top;spacingLeft=4;spacingRight=4;overflow=hidden;rotatable=0;points=[[0,0.5],[1,0.5]];portConstraint=eastwest;" parent="yE5SrkLv0Mxitz5vEZZZ-42" vertex="1">
          <mxGeometry y="34" width="226" height="26" as="geometry" />
        </mxCell>
        <mxCell id="adYYrquD5wkxll2_nq_Y-4" value="" style="endArrow=none;endSize=12;html=1;rounded=0;edgeStyle=orthogonalEdgeStyle;endFill=0;" edge="1" parent="WIyWlLk6GJQsqaUBKTNV-1" source="zkfFHV4jXpPFQw0GAbJ--0" target="3stbD-vfwwwqs8hx2HHw-10">
          <mxGeometry width="160" relative="1" as="geometry">
            <mxPoint x="220" y="10" as="sourcePoint" />
            <mxPoint x="380" y="10" as="targetPoint" />
            <Array as="points">
              <mxPoint x="210" y="-109" />
            </Array>
          </mxGeometry>
        </mxCell>
        <mxCell id="adYYrquD5wkxll2_nq_Y-10" value="1" style="edgeLabel;html=1;align=center;verticalAlign=middle;resizable=0;points=[];" vertex="1" connectable="0" parent="adYYrquD5wkxll2_nq_Y-4">
          <mxGeometry x="-0.8441" relative="1" as="geometry">
            <mxPoint x="10" y="-8" as="offset" />
          </mxGeometry>
        </mxCell>
        <mxCell id="adYYrquD5wkxll2_nq_Y-11" value="1" style="edgeLabel;html=1;align=center;verticalAlign=middle;resizable=0;points=[];" vertex="1" connectable="0" parent="adYYrquD5wkxll2_nq_Y-4">
          <mxGeometry x="0.8588" y="1" relative="1" as="geometry">
            <mxPoint x="8" y="6" as="offset" />
          </mxGeometry>
        </mxCell>
        <mxCell id="adYYrquD5wkxll2_nq_Y-5" value="" style="endArrow=none;endFill=0;endSize=12;html=1;rounded=0;" edge="1" parent="WIyWlLk6GJQsqaUBKTNV-1" source="3stbD-vfwwwqs8hx2HHw-33" target="yE5SrkLv0Mxitz5vEZZZ-0">
          <mxGeometry width="160" relative="1" as="geometry">
            <mxPoint x="223" y="350" as="sourcePoint" />
            <mxPoint x="223" y="398" as="targetPoint" />
          </mxGeometry>
        </mxCell>
        <mxCell id="adYYrquD5wkxll2_nq_Y-6" value="1" style="edgeLabel;html=1;align=center;verticalAlign=middle;resizable=0;points=[];" vertex="1" connectable="0" parent="adYYrquD5wkxll2_nq_Y-5">
          <mxGeometry x="-0.8461" y="-1" relative="1" as="geometry">
            <mxPoint x="8" y="4" as="offset" />
          </mxGeometry>
        </mxCell>
        <mxCell id="adYYrquD5wkxll2_nq_Y-7" value="*" style="edgeLabel;html=1;align=center;verticalAlign=middle;resizable=0;points=[];" vertex="1" connectable="0" parent="adYYrquD5wkxll2_nq_Y-5">
          <mxGeometry x="0.6796" y="1" relative="1" as="geometry">
            <mxPoint x="6" y="-4" as="offset" />
          </mxGeometry>
        </mxCell>
        <mxCell id="adYYrquD5wkxll2_nq_Y-13" value="" style="endArrow=none;endSize=12;html=1;rounded=0;edgeStyle=orthogonalEdgeStyle;endFill=0;" edge="1" parent="WIyWlLk6GJQsqaUBKTNV-1" source="zkfFHV4jXpPFQw0GAbJ--0" target="3stbD-vfwwwqs8hx2HHw-2">
          <mxGeometry width="160" relative="1" as="geometry">
            <mxPoint x="219" y="33" as="sourcePoint" />
            <mxPoint x="402" y="-99" as="targetPoint" />
            <Array as="points">
              <mxPoint x="450" y="40" />
              <mxPoint x="450" y="40" />
            </Array>
          </mxGeometry>
        </mxCell>
        <mxCell id="adYYrquD5wkxll2_nq_Y-14" value="1" style="edgeLabel;html=1;align=center;verticalAlign=middle;resizable=0;points=[];" vertex="1" connectable="0" parent="adYYrquD5wkxll2_nq_Y-13">
          <mxGeometry x="-0.8441" relative="1" as="geometry">
            <mxPoint x="5" y="-10" as="offset" />
          </mxGeometry>
        </mxCell>
        <mxCell id="adYYrquD5wkxll2_nq_Y-15" value="*" style="edgeLabel;html=1;align=center;verticalAlign=middle;resizable=0;points=[];" vertex="1" connectable="0" parent="adYYrquD5wkxll2_nq_Y-13">
          <mxGeometry x="0.8588" y="1" relative="1" as="geometry">
            <mxPoint x="-7" y="-10" as="offset" />
          </mxGeometry>
        </mxCell>
        <mxCell id="adYYrquD5wkxll2_nq_Y-16" value="" style="endArrow=block;endFill=0;html=1;edgeStyle=orthogonalEdgeStyle;align=left;verticalAlign=top;rounded=0;exitX=0.5;exitY=0;exitDx=0;exitDy=0;entryX=0.5;entryY=1;entryDx=0;entryDy=0;endSize=10;" edge="1" parent="WIyWlLk6GJQsqaUBKTNV-1" source="yE5SrkLv0Mxitz5vEZZZ-23" target="yE5SrkLv0Mxitz5vEZZZ-0">
          <mxGeometry x="-1" relative="1" as="geometry">
            <mxPoint x="230" y="450" as="sourcePoint" />
            <mxPoint x="390" y="450" as="targetPoint" />
          </mxGeometry>
        </mxCell>
        <mxCell id="adYYrquD5wkxll2_nq_Y-18" value="" style="endArrow=block;endFill=0;html=1;edgeStyle=orthogonalEdgeStyle;align=left;verticalAlign=top;rounded=0;endSize=10;" edge="1" parent="WIyWlLk6GJQsqaUBKTNV-1" source="yE5SrkLv0Mxitz5vEZZZ-7" target="yE5SrkLv0Mxitz5vEZZZ-0">
          <mxGeometry x="-1" relative="1" as="geometry">
            <mxPoint x="223" y="670" as="sourcePoint" />
            <mxPoint x="223" y="530" as="targetPoint" />
          </mxGeometry>
        </mxCell>
        <mxCell id="adYYrquD5wkxll2_nq_Y-19" value="" style="endArrow=block;endFill=0;html=1;edgeStyle=orthogonalEdgeStyle;align=left;verticalAlign=top;rounded=0;endSize=10;" edge="1" parent="WIyWlLk6GJQsqaUBKTNV-1" source="yE5SrkLv0Mxitz5vEZZZ-15" target="yE5SrkLv0Mxitz5vEZZZ-0">
          <mxGeometry x="-1" relative="1" as="geometry">
            <mxPoint x="223" y="670" as="sourcePoint" />
            <mxPoint x="223" y="530" as="targetPoint" />
            <Array as="points">
              <mxPoint x="-67" y="540" />
              <mxPoint x="213" y="540" />
            </Array>
          </mxGeometry>
        </mxCell>
        <mxCell id="adYYrquD5wkxll2_nq_Y-20" value="" style="endArrow=block;endFill=0;html=1;edgeStyle=orthogonalEdgeStyle;align=left;verticalAlign=top;rounded=0;endSize=11;entryX=0.5;entryY=0;entryDx=0;entryDy=0;" edge="1" parent="WIyWlLk6GJQsqaUBKTNV-1" source="yE5SrkLv0Mxitz5vEZZZ-42" target="3stbD-vfwwwqs8hx2HHw-2">
          <mxGeometry x="-1" relative="1" as="geometry">
            <mxPoint x="830" y="563" as="sourcePoint" />
            <mxPoint x="1017" y="390" as="targetPoint" />
            <Array as="points">
              <mxPoint x="638" y="-90" />
              <mxPoint x="483" y="-90" />
            </Array>
          </mxGeometry>
        </mxCell>
        <mxCell id="adYYrquD5wkxll2_nq_Y-21" value="" style="endArrow=block;endFill=0;html=1;edgeStyle=orthogonalEdgeStyle;align=left;verticalAlign=top;rounded=0;endSize=11;" edge="1" parent="WIyWlLk6GJQsqaUBKTNV-1" source="yE5SrkLv0Mxitz5vEZZZ-33" target="3stbD-vfwwwqs8hx2HHw-2">
          <mxGeometry x="-1" relative="1" as="geometry">
            <mxPoint x="884" y="292" as="sourcePoint" />
            <mxPoint x="693" y="292" as="targetPoint" />
            <Array as="points" />
          </mxGeometry>
        </mxCell>
        <mxCell id="adYYrquD5wkxll2_nq_Y-23" value="" style="endArrow=none;endSize=12;html=1;rounded=0;edgeStyle=orthogonalEdgeStyle;endFill=0;" edge="1" parent="WIyWlLk6GJQsqaUBKTNV-1" source="yE5SrkLv0Mxitz5vEZZZ-7" target="3stbD-vfwwwqs8hx2HHw-2">
          <mxGeometry width="160" relative="1" as="geometry">
            <mxPoint x="336" y="50" as="sourcePoint" />
            <mxPoint x="580" y="50" as="targetPoint" />
            <Array as="points">
              <mxPoint x="-250" y="435" />
              <mxPoint x="-250" y="690" />
              <mxPoint x="420" y="690" />
            </Array>
          </mxGeometry>
        </mxCell>
        <mxCell id="adYYrquD5wkxll2_nq_Y-24" value="1" style="edgeLabel;html=1;align=center;verticalAlign=middle;resizable=0;points=[];" vertex="1" connectable="0" parent="adYYrquD5wkxll2_nq_Y-23">
          <mxGeometry x="-0.8441" relative="1" as="geometry">
            <mxPoint x="5" y="-10" as="offset" />
          </mxGeometry>
        </mxCell>
        <mxCell id="adYYrquD5wkxll2_nq_Y-25" value="0..1" style="edgeLabel;html=1;align=center;verticalAlign=middle;resizable=0;points=[];" vertex="1" connectable="0" parent="adYYrquD5wkxll2_nq_Y-23">
          <mxGeometry x="0.8588" y="1" relative="1" as="geometry">
            <mxPoint x="21" y="-70" as="offset" />
          </mxGeometry>
        </mxCell>
        <mxCell id="adYYrquD5wkxll2_nq_Y-26" value="" style="endArrow=block;endFill=0;html=1;edgeStyle=orthogonalEdgeStyle;align=left;verticalAlign=top;rounded=0;endSize=11;" edge="1" parent="WIyWlLk6GJQsqaUBKTNV-1" source="yE5SrkLv0Mxitz5vEZZZ-39" target="3stbD-vfwwwqs8hx2HHw-2">
          <mxGeometry x="-1" relative="1" as="geometry">
            <mxPoint x="537" y="-150" as="sourcePoint" />
            <mxPoint x="493" y="-70" as="targetPoint" />
            <Array as="points">
              <mxPoint x="310" y="-215" />
              <mxPoint x="310" y="-130" />
              <mxPoint x="483" y="-130" />
            </Array>
          </mxGeometry>
        </mxCell>
      </root>
    </mxGraphModel>
  </diagram>
</mxfile>
